<?xml version="1.0" encoding="UTF-8" standalone="no" ?>
<!DOCTYPE svg PUBLIC "-//W3C//DTD SVG 1.1//EN" "http://www.w3.org/Graphics/SVG/1.1/DTD/svg11.dtd">
<svg xmlns="http://www.w3.org/2000/svg" xmlns:xlink="http://www.w3.org/1999/xlink" version="1.1" width="400" height="400" viewBox="0 0 400 400" xml:space="preserve">
<desc>Created with Fabric.js 3.6.2</desc>
<defs>
</defs>
<g transform="matrix(0.39 0 0 0.39 200 200)"  >
<path style="stroke: none; stroke-width: 1; stroke-dasharray: none; stroke-linecap: butt; stroke-dashoffset: 0; stroke-linejoin: miter; stroke-miterlimit: 4; fill: rgb(0,0,0); fill-rule: evenodd; opacity: 1;"  transform=" translate(-256, -256)" d="M 256 512 C 114.615 512 0 397.385 0 256 C 0 114.615 114.615 0 256 0 C 397.385 0 512 114.615 512 256 C 512 397.385 397.385 512 256 512 Z M 215.957 128.005 L 205.135 166.575 L 204.029 166.575 L 192.677 128.005 L 175.062 128.005 L 195.881 186.249 L 195.881 224.474 L 213.384 224.474 L 213.384 184.443 L 233.742 128.005 L 215.957 128.005 Z M 278.044 169.978 C 278.044 164.566 275.978 160.126 271.894 156.686 C 267.787 153.235 262.505 151.514 256.085 151.514 C 249.02 151.514 243.412 153.148 239.214 156.416 C 235.039 159.674 232.939 164.076 232.939 169.583 L 232.939 206.481 C 232.939 212.517 234.983 217.333 239.068 220.918 C 243.141 224.493 248.581 226.281 255.373 226.281 C 262.438 226.281 267.979 224.541 272.007 221.072 C 276.025 217.601 278.044 212.825 278.044 206.731 L 278.044 169.978 Z M 335.561 153.312 L 320.033 153.312 L 320.033 207.327 C 318.589 208.884 316.975 210.163 315.226 211.152 C 313.488 212.162 312.044 212.662 310.892 212.662 C 309.448 212.662 308.387 212.277 307.745 211.527 C 307.09 210.768 306.763 209.556 306.763 207.866 L 306.763 153.312 L 291.236 153.312 L 291.236 212.796 C 291.236 217.025 292.127 220.216 293.955 222.331 C 295.783 224.445 298.492 225.503 302.079 225.503 C 305.003 225.503 308.004 224.753 311.096 223.234 C 314.2 221.725 317.179 219.515 320.033 216.622 L 320.033 224.474 L 335.561 224.474 L 335.561 153.312 Z M 382.301 269.734 C 382.301 252.549 365.735 238.602 345.333 238.602 C 316.196 237.564 286.382 237.112 255.983 237.161 C 225.582 237.112 195.768 237.564 166.632 238.602 C 146.23 238.602 129.664 252.549 129.664 269.734 C 128.446 283.343 127.904 296.963 127.961 310.572 C 127.904 324.182 128.446 337.791 129.664 351.411 C 129.664 368.596 146.23 382.542 166.632 382.542 C 195.768 383.57 225.582 384.032 255.983 383.984 C 286.382 384.032 316.196 383.57 345.333 382.542 C 365.735 382.542 382.301 368.596 382.301 351.411 C 383.52 337.791 384.062 324.182 384.006 310.572 C 384.062 296.963 383.52 283.343 382.301 269.734 Z M 339.555 358.322 C 332.604 358.322 327.132 356.37 323.137 352.449 C 319.142 348.537 317.144 343.155 317.144 336.311 L 317.144 304.363 C 317.144 298.193 319.334 293.157 323.724 289.264 C 328.124 285.372 333.778 283.43 340.74 283.43 C 347.838 283.43 353.301 285.227 357.113 288.831 C 360.94 292.436 362.846 297.616 362.846 304.363 L 362.846 322.481 L 333.134 322.481 L 333.134 335.907 C 333.134 339.646 333.632 342.242 334.67 343.692 C 335.696 345.144 337.434 345.874 339.917 345.874 C 342.489 345.874 344.284 345.25 345.31 344.029 C 346.349 342.798 346.856 340.098 346.856 335.907 L 346.856 330.958 L 362.846 330.958 L 362.846 336.311 C 362.846 343.607 360.895 349.095 357.002 352.794 C 353.109 356.476 347.296 358.322 339.555 358.322 Z M 346.856 311.437 L 346.856 304.229 C 346.856 301.249 346.315 299.115 345.244 297.828 C 344.149 296.539 342.444 295.896 340.063 295.896 C 337.604 295.896 335.832 296.539 334.748 297.828 C 333.664 299.115 333.134 301.249 333.134 304.229 L 333.134 311.437 L 346.856 311.437 Z M 291.224 357.303 C 288.177 357.303 285.481 356.774 283.1 355.736 C 280.718 354.698 278.496 353.092 276.464 350.92 L 276.464 356.399 L 260.779 356.399 L 260.779 259.92 L 276.464 259.92 L 276.464 290.975 C 278.552 288.802 280.775 287.159 283.133 286.034 C 285.492 284.89 287.872 284.333 290.277 284.333 C 295.186 284.333 298.954 285.852 301.527 288.899 C 304.123 291.926 305.42 296.357 305.42 302.172 L 305.42 341.655 C 305.42 346.711 304.201 350.584 301.776 353.276 C 299.349 355.957 295.828 357.303 291.224 357.303 Z M 289.43 302.979 C 289.43 300.567 288.878 298.75 287.772 297.501 C 286.666 296.251 285.064 295.627 282.953 295.627 C 281.848 295.627 280.741 295.867 279.669 296.337 C 278.585 296.799 277.514 297.52 276.464 298.5 L 276.464 342.857 C 277.728 344.01 278.948 344.846 280.143 345.356 C 281.317 345.874 282.58 346.115 283.901 346.115 C 285.797 346.115 287.197 345.624 288.087 344.626 C 288.99 343.616 289.43 341.982 289.43 339.713 L 289.43 302.979 Z M 230.086 348.537 C 227.219 351.43 224.24 353.631 221.137 355.159 C 218.045 356.668 215.043 357.427 212.132 357.427 C 208.531 357.427 205.834 356.37 204.018 354.246 C 202.19 352.122 201.276 348.95 201.276 344.712 L 201.276 285.227 L 216.815 285.227 L 216.815 339.781 C 216.815 341.473 217.142 342.694 217.785 343.444 C 218.44 344.202 219.49 344.577 220.955 344.577 C 222.096 344.577 223.529 344.077 225.288 343.087 C 227.026 342.079 228.629 340.809 230.086 339.253 L 230.086 285.227 L 245.623 285.227 L 245.623 356.399 L 230.086 356.399 L 230.086 348.537 Z M 183.39 356.399 L 165.887 356.399 L 165.887 273.924 L 147.787 273.924 L 147.787 259.92 L 201.491 259.92 L 201.491 273.924 L 183.39 273.924 L 183.39 356.399 Z M 255.339 213.939 C 253.275 213.939 251.695 213.421 250.589 212.344 C 249.472 211.277 248.929 209.768 248.929 207.808 L 248.929 169.045 C 248.929 167.488 249.517 166.239 250.712 165.287 C 251.886 164.326 253.432 163.846 255.339 163.846 C 257.394 163.846 259.041 164.326 260.305 165.287 C 261.569 166.239 262.211 167.488 262.211 169.045 L 262.211 207.808 C 262.211 209.711 261.591 211.22 260.35 212.315 C 259.109 213.402 257.439 213.939 255.339 213.939 Z" stroke-linecap="round" />
</g>
</svg>